 <svg  version="1.0" xmlns="http://www.w3.org/2000/svg"  width="300.000000pt" height="300.000000pt" viewBox="0 0 300.000000 300.000000"  preserveAspectRatio="xMidYMid meet">  <g transform="translate(0.000000,300.000000) scale(0.100000,-0.100000)" fill="#b50303" stroke="none"> <path d="M933 1771 c3 -9 21 -54 41 -101 47 -113 62 -115 99 -18 43 113 49 115 42 16 -7 -88 -7 -88 17 -88 23 0 24 1 23 100 l0 100 -41 0 -41 0 -18 -60 c-17 -55 -35 -87 -35 -61 0 6 -9 35 -20 65 -16 42 -26 55 -46 59 -20 4 -25 1 -21 -12z"/> <path d="M2100 1777 c-14 -7 -33 -28 -42 -47 l-18 -35 0 43 0 42 -90 0 c-85 0 -90 -1 -90 -21 0 -17 5 -20 25 -17 l25 5 0 -84 c0 -80 1 -84 21 -81 20 3 22 10 23 83 1 73 3 80 21 80 18 0 20 -8 23 -82 3 -75 5 -83 22 -83 17 0 20 7 21 48 1 29 3 39 7 27 30 -89 136 -102 176 -21 l16 31 0 -42 c0 -36 3 -43 20 -43 17 0 19 8 22 67 l3 67 39 -67 c31 -52 44 -67 63 -67 23 0 23 2 23 100 l0 100 -26 0 c-27 0 -27 0 -21 -60 4 -33 3 -60 -1 -60 -4 0 -22 27 -41 60 -27 46 -40 60 -58 60 -20 0 -23 -5 -23 -37 l0 -38 -20 33 c-29 48 -74 62 -120 39z m78 -49 c19 -19 14 -73 -9 -94 -19 -17 -23 -17 -47 -3 -30 16 -42 70 -21 95 14 17 61 18 77 2z"/> <path d="M1170 1680 l0 -100 55 0 c48 0 55 2 55 20 0 16 -7 20 -35 20 -31 0 -35 3 -35 25 0 24 2 25 35 19 31 -5 35 -4 35 15 0 17 -6 21 -35 21 -31 0 -35 3 -35 25 0 22 3 24 33 18 40 -8 42 -11 63 -96 15 -64 18 -68 42 -65 22 3 28 11 38 51 16 65 21 67 34 16 17 -68 18 -69 43 -69 20 0 25 8 42 73 26 106 32 108 27 13 l-5 -86 28 0 28 0 -7 65 c-4 36 -5 65 -2 65 2 0 22 -29 45 -65 38 -62 42 -65 80 -65 32 0 40 4 45 23 5 20 11 24 43 22 27 -2 40 -8 47 -24 5 -13 18 -21 33 -21 12 0 23 1 23 3 0 1 -18 45 -39 97 -33 78 -44 96 -63 98 -21 3 -27 -6 -55 -80 l-32 -83 0 83 c-1 78 -2 82 -24 82 -20 0 -22 -4 -19 -44 7 -81 0 -84 -41 -18 -37 61 -39 62 -81 62 -43 0 -44 0 -55 -44 -6 -25 -11 -54 -11 -65 0 -42 -17 -19 -31 42 -11 49 -19 63 -35 65 -17 2 -22 -6 -33 -63 -7 -36 -16 -65 -20 -65 -4 0 -13 29 -20 65 l-13 65 -74 0 -74 0 0 -100z m630 26 c0 -8 3 -21 6 -30 5 -12 0 -16 -19 -16 -24 0 -25 2 -16 30 11 31 29 41 29 16z"/> <path d="M810 1762 c0 -7 -16 -12 -37 -12 -21 -1 -55 -7 -76 -14 -43 -16 -117 -64 -117 -77 0 -18 80 -61 127 -69 44 -7 45 -8 12 -9 -29 -1 -38 -6 -48 -28 -10 -24 -10 -26 2 -10 8 9 28 17 44 17 43 0 106 24 159 60 l45 32 -23 17 c-40 31 -72 45 -118 52 -44 6 -44 6 -9 8 34 1 59 24 44 39 -3 3 -5 0 -5 -6z m-113 -60 c-19 -21 -22 -54 -6 -83 9 -18 8 -19 -8 -11 -29 16 -56 50 -48 62 7 11 65 50 74 50 2 0 -3 -8 -12 -18z m138 -16 c35 -29 30 -44 -24 -79 l-35 -21 24 32 c24 32 24 34 8 63 -21 35 -13 37 27 5z m-47 -10 c8 -18 7 -28 -4 -45 -27 -38 -84 -22 -84 24 0 48 68 64 88 21z"/> </g> </svg> 